<svg fill="none" height="20" viewBox="0 0 20 20" width="20" xmlns="http://www.w3.org/2000/svg"><g fill="#212121"><path d="m15.4996 7.00003c1.3255 0 2.41 1.03154 2.4947 2.33563l.0053.16437v.75677c-.9509-.78512-2.1702-1.2568-3.4996-1.2568-3.0376 0-5.5 2.4624-5.5 5.5 0 1.3295.47172 2.5488 1.2569 3.4997h-.75699c-1.32548 0-2.41004-1.0315-2.49468-2.3356l-.00532-.1644v-5.99967c0-1.32548 1.03154-2.41004 2.33563-2.49468l.16437-.00532z"/><path d="m12.6618 3.69508.0477.15739.5753 2.14743-4.28489.00013c-1.59768 0-2.90366 1.24892-2.99491 2.82373l-.00509.17627.00028 5.34767c-1.02696-.0209-1.9642-.6782-2.3106-1.6825l-.05217-.1706-1.55283-5.7952c-.34307-1.28032.37262-2.5949 1.61036-3.01418l.1574-.04768 5.79524-1.55283c1.22701-.32877 2.48541.31482 2.95721 1.45841z"/><path d="m19 14.5c0 2.4853-2.0147 4.5-4.5 4.5s-4.5-2.0147-4.5-4.5 2.0147-4.5 4.5-4.5 4.5 2.0147 4.5 4.5zm-4-2c0-.2761-.2239-.5-.5-.5s-.5.2239-.5.5v1.5h-1.5c-.2761 0-.5.2239-.5.5s.2239.5.5.5h1.5v1.5c0 .2761.2239.5.5.5s.5-.2239.5-.5v-1.5h1.5c.2761 0 .5-.2239.5-.5s-.2239-.5-.5-.5h-1.5z"/></g></svg>